<svg preserveAspectRatio="none" overflow="visible" style="display: block;" width="10.4963" height="12.25" viewBox="0 0 10.4963 12.25" fill="none" xmlns="http://www.w3.org/2000/svg">
<g id="Group">
<path id="Vector" d="M1.74937 8.16667V8.75C1.74937 9.38 1.90876 9.96722 2.22754 10.5117C2.53854 11.0406 2.95839 11.4606 3.48709 11.7717C4.03134 12.0906 4.61835 12.25 5.24812 12.25C5.8779 12.25 6.46491 12.0906 7.00916 11.7717C7.53786 11.4606 7.95771 11.0406 8.26871 10.5117C8.58749 9.96722 8.74687 9.38 8.74687 8.75V8.16667H9.91312C10.0764 8.16667 10.2144 8.11028 10.3271 7.9975C10.4399 7.88472 10.4962 7.74667 10.4962 7.58333V0.583333C10.4962 0.42 10.4399 0.281944 10.3271 0.169167C10.2144 0.0563889 10.0764 0 9.91312 0H0.583125C0.41985 0 0.281844 0.0563889 0.169106 0.169167C0.0563687 0.281944 0 0.42 0 0.583333V7.58333C0 7.74667 0.0563687 7.88472 0.169106 7.9975C0.281844 8.11028 0.41985 8.16667 0.583125 8.16667H1.74937ZM9.33 7H1.16625V1.16667H9.33V7ZM4.665 3.65167C4.48617 3.76056 4.34428 3.90444 4.23932 4.08333C4.13436 4.26222 4.08187 4.45667 4.08187 4.66667C4.08187 4.87667 4.13436 5.07111 4.23932 5.25C4.34428 5.42889 4.48617 5.57083 4.665 5.67583C4.84382 5.78083 5.0382 5.83333 5.24812 5.83333C5.45805 5.83333 5.65242 5.78083 5.83125 5.67583C6.01007 5.57083 6.15197 5.42889 6.25693 5.25C6.36189 5.07111 6.41437 4.87667 6.41437 4.66667C6.41437 4.45667 6.36189 4.26222 6.25693 4.08333C6.15197 3.90444 6.01007 3.76056 5.83125 3.65167V2.33333H4.665V3.65167ZM2.91562 8.16667H7.58062V8.75C7.58062 9.17 7.47566 9.55889 7.26574 9.91667C7.05581 10.2744 6.77202 10.5583 6.41437 10.7683C6.05672 10.9783 5.66797 11.0833 5.24812 11.0833C4.82827 11.0833 4.43952 10.9783 4.08187 10.7683C3.72423 10.5583 3.44044 10.2744 3.23051 9.91667C3.02059 9.55889 2.91562 9.17 2.91562 8.75V8.16667Z" fill="#4013CC"/>
</g>
</svg>
